<?xml version="1.0" encoding="utf-8"?>
<!-- Generator: Adobe Illustrator 27.4.1, SVG Export Plug-In . SVG Version: 6.00 Build 0)  -->
<svg version="1.1" id="Layer_2" xmlns="http://www.w3.org/2000/svg" xmlns:xlink="http://www.w3.org/1999/xlink" x="0px" y="0px"
	 viewBox="0 0 201 52.4" style="enable-background:new 0 0 201 52.4;" xml:space="preserve">
<style type="text/css">
	.st0{fill:#26252B;}
</style>
<g>
	<path class="st0" d="M32.6,46.7c-3.3,3.3-8.1,4.8-13.3,4.8H1V1h18.2c5.3,0,10,1.5,13.3,4.8c5.7,5.7,5.1,12.6,5.1,20.2
		C37.7,33.7,38.3,41.1,32.6,46.7z M25.7,12.9c-1.7-2.1-4-3.1-7.4-3.1h-7.5v32.9h7.5c3.4,0,5.7-1.1,7.4-3.1c1.8-2.3,2.1-5.9,2.1-13.6
		S27.6,15.2,25.7,12.9z"/>
	<path class="st0" d="M63,51.6v-3.2c-2.5,2.5-4.8,3.6-9.1,3.6c-4.2,0-7.2-1.1-9.4-3.3c-2-2.1-3.1-5-3.1-8.3c0-5.9,4-10.7,12.6-10.7
		h8.7v-1.8c0-4-2-5.8-6.9-5.8c-3.6,0-5.2,0.9-7.1,3.1l-5.9-5.8c3.6-4,7.2-5.1,13.3-5.1c10.4,0,15.8,4.4,15.8,13.1v24.4H63z
		 M62.8,35.9h-7.3c-3.3,0-5.2,1.6-5.2,4.2c0,2.6,1.7,4.3,5.3,4.3c2.6,0,4.2-0.2,5.8-1.8c1-0.9,1.3-2.4,1.3-4.7V35.9z"/>
	<path class="st0" d="M100.9,51.6l-9.1-15.4l-3.9,4.4v11h-9.2V1h9.2v28.7l12.3-15.1h11.1L98.1,29.5l14.2,22.1H100.9z"/>
	<path class="st0" d="M134.2,51.6v-3.2c-2.5,2.5-4.8,3.6-9.1,3.6c-4.2,0-7.2-1.1-9.4-3.3c-2-2.1-3.1-5-3.1-8.3
		c0-5.9,4-10.7,12.6-10.7h8.7v-1.8c0-4-2-5.8-6.9-5.8c-3.6,0-5.2,0.9-7.1,3.1l-5.9-5.8c3.6-4,7.2-5.1,13.3-5.1
		c10.4,0,15.8,4.4,15.8,13.1v24.4H134.2z M133.9,35.9h-7.3c-3.3,0-5.2,1.6-5.2,4.2c0,2.6,1.7,4.3,5.3,4.3c2.6,0,4.2-0.2,5.8-1.8
		c1-0.9,1.3-2.4,1.3-4.7V35.9z"/>
	<path class="st0" d="M171.3,51.6V29.2c0-5-3.2-6.7-6.1-6.7c-2.9,0-6.2,1.7-6.2,6.7v22.4h-9.2v-37h9V18c2.4-2.6,5.8-3.8,9.2-3.8
		c3.7,0,6.7,1.2,8.7,3.3c3,3,3.8,6.5,3.8,10.5v23.6H171.3z"/>
	<path class="st0" d="M193.1,29.7c-4.4,0-7.9-3.6-7.9-7.9s3.6-7.9,7.9-7.9c4.4,0,7.9,3.6,7.9,7.9S197.4,29.7,193.1,29.7z
		 M193.1,15.6c-3.4,0-6.1,2.6-6.1,6.2s2.6,6.2,6.1,6.2c3.4,0,6.1-2.6,6.1-6.2S196.5,15.6,193.1,15.6z M194.5,26l-1.5-3.3H192V26
		h-1.9v-8.4h3.4c1.7,0,2.8,1.3,2.8,2.7c0,1.2-0.7,1.9-1.6,2.2l1.8,3.6H194.5z M193.4,19.1H192v2.2h1.3c0.7,0,1.2-0.5,1.2-1.1
		C194.5,19.6,194.1,19.1,193.4,19.1z"/>
</g>
</svg>
